<svg width="24" height="24" viewBox="0 0 24 24" fill="none" xmlns="http://www.w3.org/2000/svg">
<g id="Icon/Outline/mic">
<path id="Mask" fill-rule="evenodd" clip-rule="evenodd" d="M12.5 4C11.2591 4 10.25 4.897 10.25 6V11C10.25 12.103 11.2591 13 12.5 13C13.7409 13 14.75 12.103 14.75 11V6C14.75 4.897 13.7409 4 12.5 4ZM17 11C17 13.206 14.9818 15 12.5 15C10.0182 15 8 13.206 8 11V6C8 3.794 10.0182 2 12.5 2C14.9818 2 17 3.794 17 6V11ZM18.9286 10C19.5211 10 20 10.448 20 11C20 14.52 17.2004 17.432 13.5714 17.92V20V21V22H11.4286V20V17.92C7.79964 17.432 5 14.52 5 11C5 10.448 5.47893 10 6.07143 10C6.66393 10 7.14286 10.448 7.14286 11C7.14286 13.757 9.54607 16 12.5 16C15.4539 16 17.8571 13.757 17.8571 11C17.8571 10.448 18.3361 10 18.9286 10Z" fill="#999999"/>
</g>
</svg>
