<svg width="40" height="40" viewBox="0 0 40 40" fill="none" xmlns="http://www.w3.org/2000/svg">
<circle cx="20" cy="20" r="20" fill="#F2F4F5"/>
<path fill-rule="evenodd" clip-rule="evenodd" d="M13.5146 24L14.6946 22.818C15.0726 22.44 15.2806 21.938 15.2806 21.404V16.727C15.2806 15.37 15.8706 14.073 16.9006 13.171C17.9386 12.261 19.2606 11.861 20.6376 12.042C22.9646 12.351 24.7196 14.455 24.7196 16.937V21.404C24.7196 21.938 24.9276 22.44 25.3046 22.817L26.4856 24H13.5146ZM21.9996 26.341C21.9996 27.24 21.0836 28 19.9996 28C18.9156 28 17.9996 27.24 17.9996 26.341V26H21.9996V26.341ZM28.5206 23.208L26.7196 21.404V16.937C26.7196 13.456 24.2176 10.499 20.8996 10.06C18.9776 9.804 17.0376 10.391 15.5826 11.667C14.1186 12.949 13.2806 14.793 13.2806 16.727L13.2796 21.404L11.4786 23.208C11.0096 23.678 10.8706 24.377 11.1246 24.99C11.3796 25.604 11.9726 26 12.6366 26H15.9996V26.341C15.9996 28.359 17.7936 30 19.9996 30C22.2056 30 23.9996 28.359 23.9996 26.341V26H27.3626C28.0266 26 28.6186 25.604 28.8726 24.991C29.1276 24.377 28.9896 23.677 28.5206 23.208V23.208Z" fill="#999999"/>
</svg>
