<svg width="40" height="40" viewBox="0 0 40 40" fill="none" xmlns="http://www.w3.org/2000/svg">
<circle cx="20" cy="20" r="20" fill="#F2F4F5"/>
<path fill-rule="evenodd" clip-rule="evenodd" d="M12.9999 19C12.9999 15.691 15.6909 13 18.9999 13C22.3089 13 24.9999 15.691 24.9999 19C24.9999 22.309 22.3089 25 18.9999 25C15.6909 25 12.9999 22.309 12.9999 19M28.7068 27.293L25.3118 23.897C26.3648 22.543 26.9998 20.846 26.9998 19C26.9998 14.589 23.4108 11 18.9998 11C14.5888 11 10.9998 14.589 10.9998 19C10.9998 23.411 14.5888 27 18.9998 27C20.8458 27 22.5428 26.365 23.8968 25.312L27.2928 28.707C27.4878 28.902 27.7438 29 27.9998 29C28.2558 29 28.5118 28.902 28.7068 28.707C29.0978 28.316 29.0978 27.684 28.7068 27.293" fill="#999999"/>
</svg>
